<?xml version="1.0" standalone="no"?>
<!DOCTYPE svg PUBLIC "-//W3C//DTD SVG 20010904//EN"
 "http://www.w3.org/TR/2001/REC-SVG-20010904/DTD/svg10.dtd">
<svg version="1.0" xmlns="http://www.w3.org/2000/svg"
 width="281.000000pt" height="281.000000pt" viewBox="0 0 281.000000 281.000000"
 preserveAspectRatio="xMidYMid meet">
<metadata>
Created by potrace 1.11, written by Peter Selinger 2001-2013
</metadata>
<g transform="translate(0.000000,281.000000) scale(0.100000,-0.100000)"
fill="#000000" stroke="none">
<path d="M1320 2790 c-226 -22 -473 -122 -606 -246 -24 -22 -44 -39 -44 -38 0
2 -11 -8 -25 -22 -14 -14 -25 -30 -25 -36 0 -6 -3 -9 -6 -5 -7 7 -114 -126
-114 -142 0 -6 -4 -11 -8 -11 -7 0 -32 -43 -35 -60 0 -3 -7 -11 -14 -18 -7 -8
-11 -17 -8 -22 3 -5 1 -10 -5 -12 -17 -5 -78 -197 -94 -293 -21 -131 -14 -304
19 -429 14 -55 29 -104 33 -110 3 -6 7 -15 8 -21 7 -35 73 -157 139 -255 111
-165 464 -616 565 -722 14 -14 35 -39 47 -55 12 -15 34 -41 48 -58 15 -16 48
-55 73 -85 26 -30 61 -69 78 -87 17 -18 30 -33 29 -35 -2 -2 3 -8 10 -15 11
-10 28 4 88 70 120 131 161 178 177 201 8 12 19 26 25 31 6 6 31 35 56 65 24
30 52 64 63 75 30 33 254 332 294 393 20 31 39 59 42 62 13 11 55 86 52 93 -1
4 2 7 7 7 17 0 164 272 213 395 101 248 88 519 -37 775 -44 91 -85 160 -96
160 -5 0 -9 6 -9 13 0 31 -246 267 -279 267 -6 0 -11 5 -11 10 0 6 -4 10 -10
10 -5 0 -31 13 -57 28 -166 97 -379 142 -583 122z"/>
</g>
</svg>
